


Format                           : AVI
Format/Info                      : Audio Video Interleave
File size                        : 1.09 GiB
Duration                         : 1h 45mn
Overall bit rate                 : 1 477 Kbps
Writing library                  : VirtualDub build 32839/release

Video
ID                               : 0
Format                           : MPEG-4 Visual
Format profile                   : Advanced Simple@L5
Format settings, BVOP            : Yes
Format settings, QPel            : No
Format settings, GMC             : No warppoints
Format settings, Matrix          : Custom
Codec ID                         : XVID
Codec ID/Hint                    : XviD
Duration                         : 1h 45mn
Bit rate                         : 1 339 Kbps
Width                            : 720 pixels
Height                           : 304 pixels
Display aspect ratio             : 2.35:1
Frame rate                       : 25.000 fps
Color space                      : YUV
Chroma subsampling               : 4:2:0
Bit depth                        : 8 bits
Scan type                        : Progressive
Bits/(Pixel*Frame)               : 0.245
Stream size                      : 1 015 MiB (91%)
Writing library                  : XviD 1.2.1 (UTC 2008-12-04)

Audio
ID                               : 1
Format                           : MPEG Audio
Format version                   : Version 1
Format profile                   : Layer 3
Mode                             : Joint stereo
Mode extension                   : MS Stereo
Codec ID                         : 55
Codec ID/Hint                    : MP3
Duration                         : 1h 45mn
Bit rate mode                    : Constant
Bit rate                         : 128 Kbps
Channel(s)                       : 2 channels
Sampling rate                    : 44.1 KHz
Stream size                      : 97.0 MiB (9%)
Alignment                        : Split accross interleaves
Interleave, duration             : 40 ms (1.00 video frame)
Interleave, preload duration     : 500 ms
Writing library                  : LAME3.98r
Encoding settings                : -m j -V 4 -q 2 -lowpass 17 -b 128



 
http://www.imdb.com/title/tt1189340/





Users: 7.5/10 (3,877 votes) 63 reviews | Critics: 133 reviews Metascore: 63/100 (based on 31 reviews from Metacritic.com)

A lawyer conducts business from the back of his Lincoln town car while representing a high-profile client in Beverly Hills.
Director:
Brad Furman
Writers:
John Romano (screenplay), Michael Connelly (novel)
Stars:
Matthew McConaughey, Marisa Tomei and Ryan 






 
http://img33.imageshack.us/img33/1258/vlcsnap2011041907h06m16.png 
http://img196.imageshack.us/img196/9276/vlcsnap2011041907h07m53.png 
http://img718.imageshack.us/img718/2179/vlcsnap2011041907h06m26.png



VIDEO:........ Linkolyn.dly.Advokata.2011.D.CAMRip ...Thanks

AUDIO:........ IMAGiNE .........................................Thanks

Just a few filters deinterlace ,saturation levels not alot more vid seems to start all of a sudden and there are hardcoded subs at the end thanks to imagine where there was missing line audio .

Enjoy !



Greetz to Imagine ,Flawl3ss,DiLLoN,BDK,NOiR,TOXiCiNK,THC,Ez,Rx,Boobyblue